# xmcd CD database file
#
# Track frame offsets:
#	150
#	25705
#	67762
#	109735
#	125902
#	167722
#	187477
#	225222
#
# Disc length: 3705 seconds
#
# Revision: 0
# Processed by: cddbd v1.5.2PL0 Copyright (c) Steve Scherf et al.
# Submitted via: CDex 1.51
#
DISCID=650e7708
DTITLE=Dale Fielder - Suite: Clarity
DYEAR=2002
DGENRE=Jazz
TTITLE0=Prelude - In the Current of Eternal Life
TTITLE1=Clarity I - Angelic Gifts
TTITLE2=Clarity II - NowSpace
TTITLE3=Interlude - Percussion
TTITLE4=Clarity III - The Calling
TTITLE5=Interlude - Piano
TTITLE6=Clarity IV - Glimpse of the Goddess
TTITLE7=Clarity V - You Can Hide, But You Can't Deny
EXTD=YEAR: 2002
EXTT0=
EXTT1=
EXTT2=
EXTT3=
EXTT4=
EXTT5=
EXTT6=
EXTT7=
PLAYORDER=
